<svg xmlns="http://www.w3.org/2000/svg" width="24" height="23.912" viewBox="0 0 24 23.912">
  <path id="facebook" d="M9.1,23.691v-7.98H6.627V12.044H9.1v-1.58c0-4.085,1.848-5.978,5.858-5.978a13.58,13.58,0,0,1,1.468.1,8.68,8.68,0,0,1,1.141.195V8.109q-.326-.03-.653-.036-.366-.01-.733-.009a3.694,3.694,0,0,0-1.675.309,1.686,1.686,0,0,0-.679.622,3.333,3.333,0,0,0-.374,1.752v1.3h3.919l-.386,2.1L16.7,15.711H13.454v8.245A11.994,11.994,0,1,0,9.1,23.691Z" transform="translate(0 -0.044)" fill="#cccbb0"/>
</svg>
