<svg xmlns="http://www.w3.org/2000/svg" width="43" height="64" viewBox="0 0 43 64">
  <g id="logo" transform="translate(-641.009 -36.961)">
    <g id="logo-2" data-name="logo" transform="translate(641.009 36.961)">
      <rect id="Rectangle_2" data-name="Rectangle 2" width="42.944" height="63.961" rx="21.472" transform="translate(0.028)" fill="none"/>
      <path id="Rectangle_2_-_Outline" data-name="Rectangle 2 - Outline" d="M21.494,2.2A19.366,19.366,0,0,0,2.193,21.59V42.41a19.3,19.3,0,1,0,38.6,0V21.59A19.366,19.366,0,0,0,21.494,2.2m0-2.2A21.542,21.542,0,0,1,42.988,21.59V42.41A21.494,21.494,0,1,1,0,42.41V21.59A21.542,21.542,0,0,1,21.494,0Z" transform="translate(0.012)" fill="#cccbb0"/>
      <path id="Path_7" data-name="Path 7" d="M738.784,344.288l-.9-2.009,28.9-13.051,14.03,13.253-1.5,1.6L766.353,331.84Z" transform="translate(-737.885 -313.933)" fill="#cccbb0"/>
      <path id="Path_5" data-name="Path 5" d="M740.881,564.015l-.31-2.181,41.381-5.934.31,2.181Z" transform="translate(-739.862 -515.526)" fill="#cccbb0"/>
      <path id="Path_6" data-name="Path 6" d="M963.228,362.315l-1.2-1.844c1.894-1.245,7.212-5.475,6.823-8.48-.174-1.339-1.554-2.448-4.1-3.3-3.949-1.316-6.233-3.307-6.791-5.918-.957-4.484,3.728-8.867,3.928-9.051l1.484,1.622c-.04.037-3.965,3.721-3.267,6.972.385,1.791,2.18,3.233,5.336,4.285,3.416,1.139,5.3,2.856,5.587,5.106C971.663,356.627,964.093,361.747,963.228,362.315Z" transform="translate(-933.71 -317.935)" fill="#cccbb0"/>
      <path id="Path_8" data-name="Path 8" d="M989.424,582.414l-3.19-2.606-3.954,2.585-3.357-2.579L975.866,582l-1.124-1.583,4.224-3.013,3.4,2.616,3.991-2.609L989.531,580l3.766-2.559L997.7,580.4l-1.079,1.613-3.321-2.233Z" transform="translate(-964.224 -527.259)" fill="#cccbb0"/>
    </g>
  </g>
</svg>
