<svg xmlns="http://www.w3.org/2000/svg" width="95" height="131" viewBox="0 0 95 131">
  <g id="logo" transform="translate(-616.35 -36.961)">
    <g id="logo-2" data-name="logo" transform="translate(641.009 36.961)">
      <rect id="Rectangle_2" data-name="Rectangle 2" width="47.259" height="70.333" rx="23.63" transform="translate(0.031)" fill="none"/>
      <path id="Rectangle_2_-_Outline" data-name="Rectangle 2 - Outline" d="M23.654,2.423A21.3,21.3,0,0,0,2.414,23.741V46.635a21.24,21.24,0,1,0,42.48,0V23.741A21.3,21.3,0,0,0,23.654,2.423m0-2.423A23.7,23.7,0,0,1,47.307,23.741V46.635A23.654,23.654,0,1,1,0,46.635V23.741A23.7,23.7,0,0,1,23.654,0Z" transform="translate(0.014)" fill="#cccbb0"/>
      <path id="Path_7" data-name="Path 7" d="M738.875,345.789l-.99-2.21,31.808-14.351,15.44,14.573-1.653,1.765L769.213,332.1Z" transform="translate(-737.885 -312.409)" fill="#cccbb0"/>
      <path id="Path_5" data-name="Path 5" d="M740.912,564.824l-.341-2.4L786.11,555.9l.341,2.4Z" transform="translate(-739.791 -511.504)" fill="#cccbb0"/>
      <path id="Path_6" data-name="Path 6" d="M963.771,365.163l-1.32-2.028c2.084-1.369,7.937-6.021,7.509-9.324-.191-1.472-1.71-2.692-4.515-3.625-4.346-1.447-6.86-3.637-7.473-6.507-1.053-4.931,4.1-9.75,4.323-9.953l1.633,1.783c-.044.041-4.364,4.091-3.6,7.666.423,1.97,2.4,3.555,5.872,4.712,3.76,1.252,5.828,3.141,6.148,5.615C973.053,358.909,964.723,364.539,963.771,365.163Z" transform="translate(-931.287 -316.362)" fill="#cccbb0"/>
      <path id="Path_8" data-name="Path 8" d="M990.9,582.914l-3.511-2.865-4.351,2.843-3.695-2.836-3.365,2.4-1.237-1.74,4.648-3.314,3.746,2.876,4.392-2.869,3.488,2.847,4.145-2.814,4.85,3.257-1.188,1.774-3.655-2.455Z" transform="translate(-963.167 -522.264)" fill="#cccbb0"/>
    </g>
    <path id="Path_27" data-name="Path 27" d="M5.912-51.588h1.98V-64.319H12.5V-66H1.3v1.681H5.912Zm16.557,0h2.045L19.119-66h-1.98l-5.4,14.412h2.045l1.327-3.581h6.027Zm-6.745-5.219,1.915-5.219c.152-.415.3-.939.457-1.507h.044c.152.568.3,1.092.457,1.507l1.936,5.219Zm12.641,5.219h1.98V-64.319h4.612V-66h-11.2v1.681h4.612Zm19.45-1.507a1.967,1.967,0,0,1-.435.044c-2.045,0-2.067-3.385-3.916-4.433a4.243,4.243,0,0,0,3.22-4.04c0-3.123-1.915-4.477-5.265-4.477H37.09v14.412h1.98v-5.547h1.153c3.742,0,2.546,5.678,6.57,5.678a6.7,6.7,0,0,0,1.175-.109Zm-8.746-5.59v-5.634h2.263c2.176,0,3.351.939,3.351,2.8,0,1.834-1.523,2.839-3.546,2.839Zm20.234,7.1h2.045L55.952-66h-1.98l-5.4,14.412h2.045l1.327-3.581h6.027Zm-6.745-5.219,1.915-5.219c.152-.415.3-.939.457-1.507h.044c.152.568.3,1.092.457,1.507l1.936,5.219Z" transform="translate(633.097 188.999)" fill="#cccbb0"/>
    <path id="Path_26" data-name="Path 26" d="M25.593-88.763H16.259v2.489h6.886v.459c0,2.817-1.958,5.306-5.874,5.306-4.308,0-6.919-3.374-6.919-8.385,0-5.372,3.035-8.385,6.723-8.385,3.884,0,5.385,2.751,5.385,4.815l2.741-.459c0-2.784-2.121-6.977-8.159-6.977C11.4-99.9,7.35-95.544,7.35-88.894c0,6.617,3.818,11.006,9.5,11.006,2.937,0,5.287-1.015,6.494-3.243a20.4,20.4,0,0,0,.457,3.046h1.795Zm20.723,8.418a2.95,2.95,0,0,1-.653.066c-3.068,0-3.1-5.077-5.874-6.649,2.839-.95,4.83-3.046,4.83-6.06,0-4.684-2.872-6.715-7.9-6.715H30.227v21.619H33.2V-86.4h1.73c5.613,0,3.818,8.516,9.856,8.516a10.043,10.043,0,0,0,1.762-.164ZM33.2-88.73v-8.451h3.394c3.263,0,5.026,1.408,5.026,4.193,0,2.751-2.284,4.258-5.319,4.258Zm29.926-8.451V-99.7H49.775v21.619H63.123v-2.522H52.745v-7.435h9.236v-2.522H52.745v-6.617Zm17.819,0V-99.7H67.594v21.619H80.942v-2.522H70.564v-7.435H79.8v-2.522H70.564v-6.617ZM102.35-99.7H99.38l.065,13.626c0,1.834.163,3.439.2,3.9l-.2.1a41.6,41.6,0,0,0-2.187-3.931L88.709-99.7h-3.3v21.619h2.97l-.065-13.594a27.027,27.027,0,0,0-.2-3.865l.163-.1c.163.36,1.436,2.62,2.284,4l8.55,13.561h3.231Z" transform="translate(609 245.849)" fill="#cccbb0"/>
  </g>
</svg>
